<svg width="114" height="56" viewBox="0 0 114 56" fill="none" xmlns="http://www.w3.org/2000/svg">
<path d="M20.5117 26.4375C21.5898 27 22.668 27.6094 23.7461 28.2656C24.8711 28.9219 25.9023 29.5547 26.8398 30.1641C27.7773 30.7266 28.5508 31.2656 29.1602 31.7812C29.8164 32.25 30.2383 32.625 30.4258 32.9062C30.6602 33.2812 30.7773 33.8672 30.7773 34.6641C30.7773 35.4141 30.707 36.2578 30.5664 37.1953C30.4727 38.0859 30.3086 38.9766 30.0742 39.8672C29.8398 40.7109 29.582 41.3906 29.3008 41.9062C28.9727 42.5625 28.2227 43.4062 27.0508 44.4375C25.9258 45.4688 24.6602 46.5 23.2539 47.5312C21.8477 48.5625 20.4648 49.4766 19.1055 50.2734C17.793 51.0703 16.7852 51.5625 16.082 51.75C15.5664 51.8906 14.793 52.0312 13.7617 52.1719C12.7773 52.3125 11.7461 52.4297 10.668 52.5234C9.58984 52.6172 8.60547 52.6875 7.71484 52.7344C6.87109 52.7344 6.35547 52.6875 6.16797 52.5938C5.79297 52.3594 5.46484 52.0078 5.18359 51.5391C4.94922 51.0703 4.83203 50.4609 4.83203 49.7109C4.92578 48.0703 5.11328 46.9453 5.39453 46.3359C5.48828 46.1953 5.60547 46.125 5.74609 46.125C5.88672 46.0781 6.12109 46.0547 6.44922 46.0547C6.77734 46.0547 7.19922 46.0547 7.71484 46.0547C8.23047 46.0547 8.91016 46.0312 9.75391 45.9844C9.51953 43.5938 9.30859 41.3203 9.12109 39.1641C8.93359 37.0078 8.76953 35.1094 8.62891 33.4688C8.44141 31.5469 8.30078 29.7422 8.20703 28.0547C8.11328 26.4141 7.97266 24.5859 7.78516 22.5703C7.64453 20.8359 7.48047 18.8203 7.29297 16.5234C7.10547 14.2266 6.89453 11.7422 6.66016 9.07031C6.23828 9.07031 5.74609 9.07031 5.18359 9.07031C4.62109 9.07031 4.05859 9.07031 3.49609 9.07031C2.98047 9.02344 2.53516 8.97656 2.16016 8.92969C1.73828 8.83594 1.48047 8.71875 1.38672 8.57812C1.19922 8.29688 1.05859 7.78125 0.964844 7.03125C0.871094 6.23437 0.824219 5.46094 0.824219 4.71094C0.824219 3.91406 0.964844 3.14062 1.24609 2.39062C1.52734 1.59375 1.85547 1.07813 2.23047 0.84375C2.32422 0.796875 2.69922 0.796875 3.35547 0.84375C4.01172 0.84375 4.80859 0.914062 5.74609 1.05469C6.68359 1.14844 7.69141 1.28906 8.76953 1.47656C9.89453 1.61719 10.9492 1.78125 11.9336 1.96875C12.918 2.10938 13.7852 2.25 14.5352 2.39062C15.2852 2.53125 15.8008 2.625 16.082 2.67188C16.5508 2.76563 17.4414 3.02344 18.7539 3.44531C20.1133 3.82031 21.5664 4.26562 23.1133 4.78125C24.6602 5.29688 26.1367 5.88281 27.543 6.53906C28.9492 7.14844 29.9336 7.75781 30.4961 8.36719C30.7305 8.60156 30.9414 9.25781 31.1289 10.3359C31.3633 11.4141 31.5273 12.6094 31.6211 13.9219C31.7617 15.2344 31.8086 16.4766 31.7617 17.6484C31.7617 18.7734 31.6445 19.5234 31.4102 19.8984C31.2227 20.1797 30.5664 20.6719 29.4414 21.375C28.3164 22.0781 27.0742 22.8047 25.7148 23.5547C24.168 24.3984 22.4336 25.3594 20.5117 26.4375ZM15.168 25.0312C15.7773 24.75 16.5977 24.1875 17.6289 23.3438C18.707 22.5 19.7617 21.5625 20.793 20.5312C21.8711 19.4531 22.7852 18.375 23.5352 17.2969C24.332 16.1719 24.7305 15.2109 24.7305 14.4141C24.7305 14.1797 24.4727 13.875 23.957 13.5C23.4883 13.125 22.832 12.75 21.9883 12.375C21.1445 12 20.1367 11.625 18.9648 11.25C17.8398 10.8281 16.6211 10.4531 15.3086 10.125L15.168 25.0312ZM15.0977 45.2109C16.4102 44.9297 17.6523 44.4844 18.8242 43.875C19.9961 43.2656 21.0273 42.6094 21.918 41.9062C22.8086 41.1562 23.5117 40.4062 24.0273 39.6562C24.543 38.9062 24.8008 38.2266 24.8008 37.6172C24.8008 37.0078 24.4023 36.3281 23.6055 35.5781C22.8555 34.8281 21.9414 34.0781 20.8633 33.3281C19.832 32.5781 18.7773 31.8984 17.6992 31.2891C16.6211 30.6797 15.7773 30.2344 15.168 29.9531L15.0977 45.2109ZM50.6055 16.3828C50.6992 16.5234 50.8398 17.1797 51.0273 18.3516C51.2148 19.5234 51.4023 20.9766 51.5898 22.7109C51.8242 24.4453 52.0352 26.3203 52.2227 28.3359C52.457 30.3516 52.668 32.2734 52.8555 34.1016C53.0898 35.9297 53.2773 37.5703 53.418 39.0234C53.5586 40.4766 53.6758 41.4609 53.7695 41.9766C53.9102 42.8203 54.0742 43.7578 54.2617 44.7891C54.4492 45.7734 54.6133 46.7344 54.7539 47.6719C54.8945 48.5625 54.9883 49.3359 55.0352 49.9922C55.1289 50.6484 55.1055 51.0469 54.9648 51.1875C54.8711 51.3281 54.4961 51.375 53.8398 51.3281C53.1836 51.2344 52.457 51.0938 51.6602 50.9062C50.9102 50.6719 50.1836 50.4141 49.4805 50.1328C48.8242 49.8047 48.4023 49.5 48.2148 49.2188C48.0273 48.9844 47.8398 48.6328 47.6523 48.1641C47.5117 47.6953 47.3242 46.875 47.0898 45.7031C46.5742 46.4062 46.0117 47.1562 45.4023 47.9531C44.8398 48.7031 44.2773 49.4062 43.7148 50.0625C43.1523 50.6719 42.6367 51.1641 42.168 51.5391C41.6992 51.9141 41.3477 52.1016 41.1133 52.1016C40.7383 52.1016 40.1758 51.7266 39.4258 50.9766C38.6758 50.1797 37.9258 49.2891 37.1758 48.3047C36.4258 47.3203 35.7461 46.3828 35.1367 45.4922C34.5273 44.6016 34.1992 44.0156 34.1523 43.7344C34.0586 43.4531 34.0117 42.6797 34.0117 41.4141C34.0586 40.1484 34.1055 38.7422 34.1523 37.1953C34.2461 35.6016 34.3398 34.0312 34.4336 32.4844C34.5273 30.8906 34.6211 29.625 34.7148 28.6875C34.8086 27.75 34.9023 26.7188 34.9961 25.5938C35.1367 24.4219 35.2773 23.3438 35.418 22.3594C35.5586 21.3281 35.6758 20.4375 35.7695 19.6875C35.9102 18.9375 36.0273 18.4922 36.1211 18.3516C36.2148 18.2109 36.4727 18.1406 36.8945 18.1406C37.3633 18.0938 37.832 18.1172 38.3008 18.2109C38.8164 18.2578 39.2852 18.375 39.707 18.5625C40.1289 18.7031 40.4102 18.8906 40.5508 19.125C40.6445 19.3125 40.6914 19.9219 40.6914 20.9531C40.7383 21.9375 40.7617 23.1562 40.7617 24.6094C40.7617 26.0156 40.7617 27.5625 40.7617 29.25C40.7617 30.8906 40.7383 32.4375 40.6914 33.8906C40.6914 35.2969 40.668 36.5156 40.6211 37.5469C40.6211 38.5312 40.6211 39.1172 40.6211 39.3047C40.6211 39.6797 40.832 40.4062 41.2539 41.4844C41.7227 42.5625 42.1914 43.5938 42.6602 44.5781L46.3164 40.2188C46.2695 39.375 46.2227 38.2969 46.1758 36.9844C46.1758 35.6719 46.1523 34.2891 46.1055 32.8359C46.0586 31.3828 46.0117 29.9062 45.9648 28.4062C45.918 26.9062 45.8945 25.5469 45.8945 24.3281C45.8945 23.1094 45.8945 22.1016 45.8945 21.3047C45.8945 20.5078 45.918 20.0391 45.9648 19.8984C46.1055 19.6172 46.3867 19.2422 46.8086 18.7734C47.2305 18.3047 47.6992 17.8594 48.2148 17.4375C48.7305 17.0156 49.1992 16.6875 49.6211 16.4531C50.0898 16.2188 50.418 16.1953 50.6055 16.3828ZM73.457 16.3828C73.5508 16.5234 73.6914 17.1797 73.8789 18.3516C74.0664 19.5234 74.2539 20.9766 74.4414 22.7109C74.6758 24.4453 74.8867 26.3203 75.0742 28.3359C75.3086 30.3516 75.5195 32.2734 75.707 34.1016C75.9414 35.9297 76.1289 37.5703 76.2695 39.0234C76.4102 40.4766 76.5273 41.4609 76.6211 41.9766C76.7617 42.8203 76.9258 43.7578 77.1133 44.7891C77.3008 45.7734 77.4648 46.7344 77.6055 47.6719C77.7461 48.5625 77.8398 49.3359 77.8867 49.9922C77.9805 50.6484 77.957 51.0469 77.8164 51.1875C77.7227 51.3281 77.3477 51.375 76.6914 51.3281C76.0352 51.2344 75.3086 51.0938 74.5117 50.9062C73.7617 50.6719 73.0352 50.4141 72.332 50.1328C71.6758 49.8047 71.2539 49.5 71.0664 49.2188C70.8789 48.9844 70.6914 48.6328 70.5039 48.1641C70.3633 47.6953 70.1758 46.875 69.9414 45.7031C69.4258 46.4062 68.8633 47.1562 68.2539 47.9531C67.6914 48.7031 67.1289 49.4062 66.5664 50.0625C66.0039 50.6719 65.4883 51.1641 65.0195 51.5391C64.5508 51.9141 64.1992 52.1016 63.9648 52.1016C63.5898 52.1016 63.0273 51.7266 62.2773 50.9766C61.5273 50.1797 60.7773 49.2891 60.0273 48.3047C59.2773 47.3203 58.5977 46.3828 57.9883 45.4922C57.3789 44.6016 57.0508 44.0156 57.0039 43.7344C56.9102 43.4531 56.8633 42.6797 56.8633 41.4141C56.9102 40.1484 56.957 38.7422 57.0039 37.1953C57.0977 35.6016 57.1914 34.0312 57.2852 32.4844C57.3789 30.8906 57.4727 29.625 57.5664 28.6875C57.6602 27.75 57.7539 26.7188 57.8477 25.5938C57.9883 24.4219 58.1289 23.3438 58.2695 22.3594C58.4102 21.3281 58.5273 20.4375 58.6211 19.6875C58.7617 18.9375 58.8789 18.4922 58.9727 18.3516C59.0664 18.2109 59.3242 18.1406 59.7461 18.1406C60.2148 18.0938 60.6836 18.1172 61.1523 18.2109C61.668 18.2578 62.1367 18.375 62.5586 18.5625C62.9805 18.7031 63.2617 18.8906 63.4023 19.125C63.4961 19.3125 63.543 19.9219 63.543 20.9531C63.5898 21.9375 63.6133 23.1562 63.6133 24.6094C63.6133 26.0156 63.6133 27.5625 63.6133 29.25C63.6133 30.8906 63.5898 32.4375 63.543 33.8906C63.543 35.2969 63.5195 36.5156 63.4727 37.5469C63.4727 38.5312 63.4727 39.1172 63.4727 39.3047C63.4727 39.6797 63.6836 40.4062 64.1055 41.4844C64.5742 42.5625 65.043 43.5938 65.5117 44.5781L69.168 40.2188C69.1211 39.375 69.0742 38.2969 69.0273 36.9844C69.0273 35.6719 69.0039 34.2891 68.957 32.8359C68.9102 31.3828 68.8633 29.9062 68.8164 28.4062C68.7695 26.9062 68.7461 25.5469 68.7461 24.3281C68.7461 23.1094 68.7461 22.1016 68.7461 21.3047C68.7461 20.5078 68.7695 20.0391 68.8164 19.8984C68.957 19.6172 69.2383 19.2422 69.6602 18.7734C70.082 18.3047 70.5508 17.8594 71.0664 17.4375C71.582 17.0156 72.0508 16.6875 72.4727 16.4531C72.9414 16.2188 73.2695 16.1953 73.457 16.3828ZM97.0117 22.0078C97.4805 22.2891 97.9258 22.8047 98.3477 23.5547C98.8164 24.3047 99.2383 25.1719 99.6133 26.1562C99.9883 27.0938 100.293 28.125 100.527 29.25C100.762 30.3281 100.879 31.3594 100.879 32.3438C100.879 33 100.785 33.9844 100.598 35.2969C100.41 36.5625 100.176 37.9688 99.8945 39.5156C99.6133 41.0156 99.3086 42.5625 98.9805 44.1562C98.6523 45.75 98.3477 47.2031 98.0664 48.5156C97.7852 49.8281 97.5273 50.9297 97.293 51.8203C97.0586 52.7109 96.918 53.2031 96.8711 53.2969C96.7773 53.4375 96.4961 53.5312 96.0273 53.5781C95.6055 53.625 95.1367 53.6016 94.6211 53.5078C94.1523 53.4141 93.707 53.2734 93.2852 53.0859C92.8633 52.8984 92.6055 52.6641 92.5117 52.3828C92.4648 52.1953 92.4414 51.6094 92.4414 50.625C92.4883 49.5938 92.5352 48.375 92.582 46.9688C92.6758 45.5625 92.7695 44.0391 92.8633 42.3984C93.0039 40.7578 93.1211 39.2344 93.2148 37.8281C93.3086 36.375 93.3789 35.1328 93.4258 34.1016C93.5195 33.0703 93.5664 32.4609 93.5664 32.2734C93.6133 31.5234 93.543 30.7969 93.3555 30.0938C93.2148 29.3438 93.0039 28.7109 92.7227 28.1953C92.4883 27.6797 92.207 27.2812 91.8789 27C91.5977 26.7188 91.3164 26.625 91.0352 26.7188C90.6133 26.8125 90.1914 26.9297 89.7695 27.0703C89.3945 27.2109 89.0664 27.3281 88.7852 27.4219C88.4102 27.5625 88.082 27.7031 87.8008 27.8438C87.7539 31.3125 87.6836 34.7109 87.5898 38.0391C87.4961 41.3672 87.3789 44.3672 87.2383 47.0391C87.0977 49.6641 86.9336 51.7969 86.7461 53.4375C86.6055 55.0312 86.4414 55.8516 86.2539 55.8984C85.8789 55.9453 85.457 55.7812 84.9883 55.4062C84.5664 55.0312 84.1445 54.5625 83.7227 54C83.3008 53.4844 82.9258 52.9219 82.5977 52.3125C82.3164 51.7031 82.1289 51.1875 82.0352 50.7656C81.6602 46.1719 81.3555 42.0703 81.1211 38.4609C80.8867 34.8047 80.6992 31.5703 80.5586 28.7578C80.418 25.9453 80.3008 23.5078 80.207 21.4453C80.1602 19.3828 80.1367 17.625 80.1367 16.1719C80.0898 12.75 80.1367 10.3828 80.2773 9.07031C80.4648 8.08594 80.8867 7.14844 81.543 6.25781C82.1992 5.32031 82.9023 4.5 83.6523 3.79688C84.4492 3.09375 85.1758 2.57812 85.832 2.25C86.5352 1.875 87.0039 1.78125 87.2383 1.96875C87.3789 2.10938 87.4961 2.76563 87.5898 3.9375C87.7305 5.0625 87.8242 6.58594 87.8711 8.50781C87.918 10.3828 87.9414 12.5625 87.9414 15.0469C87.9414 17.4844 87.918 20.0625 87.8711 22.7812C89.7461 22.0312 91.4805 21.5625 93.0742 21.375C94.7148 21.1875 96.0273 21.3984 97.0117 22.0078ZM113.324 2.39062C113.418 2.67188 113.441 3.77344 113.395 5.69531C113.395 7.57031 113.324 9.89062 113.184 12.6562C113.09 15.375 112.949 18.3047 112.762 21.4453C112.574 24.5391 112.363 27.4688 112.129 30.2344C111.941 32.9531 111.73 35.2734 111.496 37.1953C111.309 39.0703 111.121 40.1484 110.934 40.4297C110.465 41.1797 109.762 41.625 108.824 41.7656C107.887 41.8594 107.184 41.8594 106.715 41.7656C106.574 41.7188 106.434 41.2031 106.293 40.2188C106.152 39.2344 106.012 37.9219 105.871 36.2812C105.777 34.6406 105.684 32.7656 105.59 30.6562C105.496 28.5469 105.426 26.3906 105.379 24.1875C105.332 21.9375 105.285 19.7344 105.238 17.5781C105.191 15.375 105.168 13.3828 105.168 11.6016C105.168 9.82031 105.191 8.32031 105.238 7.10156C105.285 5.88281 105.355 5.10937 105.449 4.78125C105.637 4.125 106.105 3.53906 106.855 3.02344C107.605 2.50781 108.426 2.13281 109.316 1.89844C110.207 1.61719 111.027 1.52344 111.777 1.61719C112.574 1.66406 113.09 1.92188 113.324 2.39062ZM112.129 46.6875C112.316 47.0156 112.387 47.4844 112.34 48.0938C112.34 48.6562 112.27 49.2656 112.129 49.9219C112.035 50.5312 111.871 51.1406 111.637 51.75C111.449 52.3125 111.238 52.7812 111.004 53.1562C110.816 53.4375 110.559 53.6719 110.23 53.8594C109.902 54.0469 109.551 54.1641 109.176 54.2109C108.801 54.3047 108.449 54.3516 108.121 54.3516C107.793 54.3516 107.535 54.3516 107.348 54.3516C107.066 54.3047 106.762 54.0938 106.434 53.7188C106.152 53.3438 105.895 52.8984 105.66 52.3828C105.473 51.8203 105.332 51.2344 105.238 50.625C105.145 49.9688 105.168 49.3594 105.309 48.7969C105.449 48.2812 105.848 47.8125 106.504 47.3906C107.16 46.9219 107.863 46.5703 108.613 46.3359C109.41 46.1016 110.137 46.0078 110.793 46.0547C111.496 46.0547 111.941 46.2656 112.129 46.6875Z" fill="white"/>
</svg>
